<?xml version="1.0" ?><!DOCTYPE svg  PUBLIC '-//W3C//DTD SVG 1.1//EN'  'http://www.w3.org/Graphics/SVG/1.1/DTD/svg11.dtd'><svg id="Layer_1" style="enable-background:new 0 0 64 64;" version="1.1" viewBox="0 0 64 64" xml:space="preserve" xmlns="http://www.w3.org/2000/svg" xmlns:xlink="http://www.w3.org/1999/xlink"><style type="text/css">
	.st0{fill:#134563;}
</style><g><g id="Icon-Clock" transform="translate(378.000000, 428.000000)"><path class="st0" d="M-346.1-373.1c-12.6,0-22.9-10.3-22.9-22.9c0-12.6,10.3-22.9,22.9-22.9     c12.6,0,22.9,10.3,22.9,22.9C-323.1-383.4-333.4-373.1-346.1-373.1L-346.1-373.1z M-346.1-416.5c-11.3,0-20.4,9.2-20.4,20.4     s9.2,20.4,20.4,20.4s20.4-9.2,20.4-20.4S-334.8-416.5-346.1-416.5L-346.1-416.5z" id="Fill-131"/><polyline class="st0" id="Fill-132" points="-338.9,-384.3 -347.4,-392.8 -347.4,-408.3 -344.7,-408.3 -344.7,-393.9      -337,-386.2 -338.9,-384.3    "/></g></g></svg>