<?xml version="1.0" encoding="utf-8"?>
<!-- Generator: Adobe Illustrator 16.0.0, SVG Export Plug-In . SVG Version: 6.00 Build 0)  -->
<svg version="1.2" baseProfile="tiny" id="Layer_1" xmlns="http://www.w3.org/2000/svg" xmlns:xlink="http://www.w3.org/1999/xlink"
	 x="0px" y="0px" width="130px" height="30px" viewBox="0 0 130 30" xml:space="preserve">
<g>
	<path fill-rule="evenodd" d="M102.192,9.089h7.725c2.319,0,4.082,0.216,5.074,0.77c0.998,0.552,1.438,1.544,1.438,2.868v6.401
		h-4.086v-6.072c0-0.771-0.22-1.213-0.552-1.433c-0.33-0.221-1.099-0.329-2.205-0.329h-3.31v7.833h-4.084V9.089z"/>
	<rect x="39.191" y="5.334" fill-rule="evenodd" width="4.302" height="13.793"/>
	<path fill-rule="evenodd" d="M25.292,13.389v-2.427h10.589v8.166h-9.599c-1.766,0-3.198-0.108-4.084-0.331
		c-0.993-0.111-1.874-0.443-2.755-0.884c-1.104-0.553-1.876-1.323-2.428-2.208c-0.555-0.883-0.774-1.983-0.774-3.196
		c0-2.43,0.774-4.192,2.431-5.408c1.652-1.104,4.191-1.767,7.61-1.767h9.599v2.428h-9.599c-1.766,0-3.089,0.331-3.859,1.104
		c-0.774,0.774-1.218,1.875-1.218,3.53c0,1.434,0.443,2.539,1.218,3.202c0.771,0.662,2.094,0.992,3.859,0.992h5.078v-3.201H25.292z"
		/>
	<path fill-rule="evenodd" fill="#C4D600" d="M54.307,17.143c1.216,0,2.209-0.333,2.872-0.772c0.661-0.556,1.101-1.328,1.101-2.318
		c0-0.884-0.439-1.656-1.101-2.209c-0.663-0.549-1.656-0.771-2.872-0.771c-1.321,0-2.315,0.223-2.977,0.771
		c-0.662,0.553-0.993,1.325-0.993,2.209c0,0.99,0.331,1.762,0.993,2.318C51.991,16.81,52.985,17.143,54.307,17.143 M54.307,19.237
		c-2.536,0-4.635-0.44-6.068-1.324c-1.544-0.992-2.316-2.208-2.316-3.861c0-1.543,0.772-2.871,2.316-3.752
		c1.434-0.995,3.532-1.435,6.068-1.435c0.224,0,0.443,0.003,0.659,0.009c2.225,0.072,3.992,0.519,5.301,1.426
		c1.545,0.881,2.315,2.209,2.315,3.752c0,1.653-0.771,2.869-2.206,3.861C58.832,18.797,56.845,19.237,54.307,19.237"/>
	<path fill-rule="evenodd" d="M72.844,16.921c1.212,0,2.099-0.221,2.536-0.661c0.666-0.333,0.996-1.106,0.996-2.097
		c0-1.106-0.33-1.767-0.996-2.319c-0.55-0.331-1.45-0.633-2.555-0.633c-0.229,0-0.519-0.029-1.084-0.029h-2.43v5.74h2.759H72.844z
		 M72.844,19.128h-7.723V5.334h4.19v3.755h3.532c1.546,0,2.759,0.108,3.751,0.327c0.996,0.224,1.766,0.663,2.429,1.215
		c0.552,0.44,0.993,0.881,1.321,1.438c0.223,0.548,0.445,1.211,0.445,1.871c0,1.658-0.773,2.87-2.098,3.752
		c-1.325,0.993-3.201,1.436-5.626,1.436H72.844z"/>
	<path fill-rule="evenodd" d="M90.607,19.128h-3.203c-1.542,0-2.754-0.22-3.637-0.774c-0.772-0.549-1.212-1.211-1.212-2.094
		c0-1.217,0.439-1.99,1.431-2.538c0.995-0.442,2.539-0.774,4.858-0.774h1.763h3.641v-0.221c0-0.552-0.33-0.994-0.772-1.215
		c-0.55-0.218-1.543-0.44-2.868-0.44H90.5h-6.954V9.089h7.062h1.438c2.203,0,3.749,0.216,4.852,0.881
		c1.105,0.661,1.655,1.542,1.655,2.868v6.29H90.607z M90.607,17.032h3.641v-1.99h-3.641h-1.214c-0.99,0-1.635-0.039-2.035,0.182
		c-0.397,0.22-0.501,0.481-0.501,0.924c0,0.332,0.118,0.54,0.44,0.772c0.177,0.128,0.883,0.111,1.767,0.111H90.607z"/>
	<path fill-rule="evenodd" fill="#C4D600" d="M1.236,12.838c1.103,0.991,5.627,4.966,5.627,4.966s-5.234,4.162-5.678,4.494
		c-0.718,0.572-1.541-0.233-0.941-0.968c2.715-2.259,1.98-6.201-0.08-7.806C-0.374,12.943,0.523,12.031,1.236,12.838"/>
	<path fill-rule="evenodd" fill="#C4D600" d="M1.236,1.012c1.103,0.991,5.627,4.967,5.627,4.967s-5.234,4.161-5.678,4.493
		c-0.718,0.572-1.541-0.234-0.941-0.967c2.715-2.259,1.98-6.2-0.08-7.805C-0.374,1.119,0.523,0.205,1.236,1.012"/>
	<path fill-rule="evenodd" fill="#C4D600" d="M8.331,7.212c1.104,0.99,5.628,4.968,5.628,4.968s-5.235,4.161-5.679,4.491
		c-0.716,0.574-1.541-0.231-0.939-0.967c2.714-2.259,1.98-6.199-0.081-7.802C6.723,7.319,7.619,6.405,8.331,7.212"/>
	<path fill-rule="evenodd" d="M118.414,9.089h2.979V5.334h4.08v3.755h4.415v1.982h-4.415v4.082c0,0.66,0.222,1.216,0.662,1.546
		c0.332,0.221,0.996,0.442,1.986,0.442h1.767v1.985h-3.753c-1.546,0-2.757-0.331-3.529-0.881c-0.881-0.442-1.213-1.326-1.213-2.32
		v-4.855h-2.979V9.089z"/>
	<g>
		<path d="M65.62,23.944l0.495,1.865c0.098,0.41,0.196,0.798,0.265,1.178h0.022c0.084-0.372,0.207-0.768,0.328-1.172l0.601-1.871
			h0.562l0.571,1.841c0.137,0.435,0.243,0.83,0.327,1.202h0.022c0.061-0.372,0.16-0.76,0.281-1.194l0.524-1.849h0.663l-1.188,3.682
			h-0.609l-0.562-1.757c-0.129-0.418-0.235-0.783-0.326-1.216h-0.016c-0.091,0.44-0.205,0.828-0.335,1.225l-0.592,1.748h-0.608
			l-1.11-3.682H65.62z"/>
		<path d="M73.613,25.899c0.015,0.905,0.585,1.278,1.256,1.278c0.479,0,0.774-0.084,1.02-0.183l0.121,0.472
			c-0.237,0.105-0.647,0.235-1.232,0.235c-1.126,0-1.811-0.753-1.811-1.856c0-1.117,0.661-1.992,1.734-1.992
			c1.201,0,1.514,1.058,1.514,1.734c0,0.137-0.009,0.243-0.022,0.319L73.613,25.899z M75.567,25.421
			c0.008-0.418-0.175-1.087-0.919-1.087c-0.686,0-0.975,0.623-1.027,1.087H75.567z"/>
		<path d="M85.812,26.744c0,0.319,0.016,0.631,0.054,0.882h-0.601l-0.062-0.464h-0.021c-0.198,0.29-0.602,0.548-1.127,0.548
			c-0.745,0-1.125-0.524-1.125-1.057c0-0.891,0.791-1.377,2.214-1.37v-0.075c0-0.305-0.084-0.859-0.837-0.852
			c-0.351,0-0.708,0.098-0.966,0.273l-0.152-0.448c0.304-0.191,0.754-0.32,1.216-0.32c1.134,0,1.407,0.769,1.407,1.506V26.744z
			 M85.158,25.747c-0.729-0.015-1.56,0.114-1.56,0.83c0,0.44,0.289,0.639,0.625,0.639c0.486,0,0.798-0.305,0.904-0.617
			c0.022-0.067,0.03-0.145,0.03-0.213V25.747z"/>
		<path d="M89.174,25.094c0-0.434-0.008-0.806-0.03-1.149h0.585l0.032,0.724h0.022c0.167-0.495,0.577-0.807,1.026-0.807
			c0.068,0,0.121,0.009,0.182,0.023v0.624c-0.075-0.008-0.145-0.016-0.235-0.016c-0.473,0-0.806,0.357-0.896,0.852
			c-0.017,0.1-0.024,0.205-0.024,0.319v1.962h-0.669L89.174,25.094z"/>
		<path d="M94.179,25.899c0.016,0.905,0.586,1.278,1.254,1.278c0.479,0,0.776-0.084,1.02-0.183l0.122,0.472
			c-0.237,0.105-0.647,0.235-1.232,0.235c-1.125,0-1.811-0.753-1.811-1.856c0-1.117,0.663-1.992,1.734-1.992
			c1.202,0,1.514,1.058,1.514,1.734c0,0.137-0.008,0.243-0.022,0.319L94.179,25.899z M96.134,25.421
			c0.007-0.418-0.175-1.087-0.921-1.087c-0.685,0-0.974,0.623-1.028,1.087H96.134z"/>
		<path d="M103.792,25.094c0-0.434-0.007-0.806-0.032-1.149h0.587l0.031,0.724h0.021c0.169-0.495,0.579-0.807,1.029-0.807
			c0.066,0,0.12,0.009,0.181,0.023v0.624c-0.074-0.008-0.143-0.016-0.235-0.016c-0.471,0-0.806,0.357-0.896,0.852
			c-0.016,0.1-0.023,0.205-0.023,0.319v1.962h-0.668L103.792,25.094z"/>
		<path d="M108.796,25.899c0.015,0.905,0.585,1.278,1.255,1.278c0.479,0,0.775-0.084,1.019-0.183l0.122,0.472
			c-0.234,0.105-0.646,0.235-1.231,0.235c-1.127,0-1.811-0.753-1.811-1.856c0-1.117,0.661-1.992,1.734-1.992
			c1.201,0,1.513,1.058,1.513,1.734c0,0.137-0.008,0.243-0.021,0.319L108.796,25.899z M110.75,25.421
			c0.008-0.418-0.175-1.087-0.919-1.087c-0.686,0-0.975,0.623-1.027,1.087H110.75z"/>
		<path d="M117.101,26.744c0,0.319,0.017,0.631,0.055,0.882h-0.602l-0.062-0.464h-0.022c-0.197,0.29-0.601,0.548-1.126,0.548
			c-0.745,0-1.125-0.524-1.125-1.057c0-0.891,0.79-1.377,2.213-1.37v-0.075c0-0.305-0.083-0.859-0.838-0.852
			c-0.35,0-0.706,0.098-0.965,0.273l-0.152-0.448c0.305-0.191,0.755-0.32,1.218-0.32c1.133,0,1.406,0.769,1.406,1.506V26.744z
			 M116.447,25.747c-0.731-0.015-1.56,0.114-1.56,0.83c0,0.44,0.29,0.639,0.623,0.639c0.487,0,0.8-0.305,0.905-0.617
			c0.023-0.067,0.031-0.145,0.031-0.213V25.747z"/>
		<path d="M123.633,22.226v4.45c0,0.328,0.01,0.699,0.032,0.95h-0.601l-0.03-0.639h-0.017c-0.206,0.412-0.646,0.723-1.248,0.723
			c-0.889,0-1.581-0.753-1.581-1.871c-0.007-1.231,0.761-1.978,1.651-1.978c0.569,0,0.949,0.268,1.109,0.556h0.017v-2.191H123.633z
			 M122.966,25.444c0-0.092-0.01-0.198-0.03-0.29c-0.101-0.418-0.465-0.768-0.967-0.768c-0.691,0-1.104,0.608-1.104,1.414
			c0,0.752,0.372,1.369,1.088,1.369c0.448,0,0.858-0.306,0.982-0.798c0.021-0.093,0.03-0.183,0.03-0.29V25.444z"/>
		<path d="M127.269,23.944l0.798,2.175c0.093,0.245,0.185,0.534,0.245,0.754h0.015c0.068-0.22,0.145-0.501,0.236-0.769l0.73-2.16
			H130l-1.003,2.625c-0.48,1.263-0.808,1.909-1.264,2.312c-0.336,0.28-0.653,0.395-0.822,0.425l-0.167-0.562
			c0.167-0.048,0.388-0.154,0.585-0.327c0.183-0.145,0.404-0.404,0.562-0.746c0.032-0.068,0.055-0.114,0.055-0.16
			c0-0.038-0.017-0.091-0.055-0.166l-1.353-3.401H127.269z"/>
	</g>
</g>
</svg>
